<svg width="21" height="21" viewBox="0 0 21 21" fill="none" xmlns="http://www.w3.org/2000/svg">
<path d="M14.9107 8.74107C14.9107 8.66964 14.875 8.58929 14.8214 8.53571L14.375 8.08929C14.3214 8.03571 14.2411 8 14.1696 8C14.0982 8 14.0179 8.03571 13.9643 8.08929L10.4554 11.5982L6.94643 8.08929C6.89286 8.03571 6.8125 8 6.74107 8C6.66071 8 6.58929 8.03571 6.53571 8.08929L6.08929 8.53571C6.03571 8.58929 6 8.66964 6 8.74107C6 8.8125 6.03571 8.89286 6.08929 8.94643L10.25 13.1071C10.3036 13.1607 10.3839 13.1964 10.4554 13.1964C10.5268 13.1964 10.6071 13.1607 10.6607 13.1071L14.8214 8.94643C14.875 8.89286 14.9107 8.8125 14.9107 8.74107Z" fill="black"/>
</svg>
